# xmcd
#
# Track frame offsets:
# 150
# 21525
# 33432
# 43330
# 51935
# 64015
# 81030
# 90277
# 100479
# 112090
# 128972
# 139902
# 150245
# 161584
# 172165
# 185145
# 196117
# 205052
# 214847
# 226515
# 235459
# 244930
# 258660
# 271527
#
# Disc length: 3805 seconds
#
#
# Revision: 1
# Processed by: cddbd v1.5.2PL0 Copyright (c) Steve Scherf et al.
# Submitted via: FreeRIP 2.944 
#
DISCID=570edb18
DTITLE=Praião e Prainha - Dose Dupla
DYEAR=1995
DGENRE=Sertanho
TTITLE0=Igrejinha da Serra
TTITLE1=Chora Coração
TTITLE2=Rincão Matogrossense
TTITLE3=Homenagem
TTITLE4=Não Posso Deixar de Te Amar
TTITLE5=Não Quero Esquecer-Te
TTITLE6=Sou Teu Espelho
TTITLE7=Não Bebo Mais
TTITLE8=Bebida Não Mata Saudade
TTITLE9=Covarde
TTITLE10=Somente Tu
TTITLE11=Te Peço que Me Compreendas
TTITLE12=Quando a Saudade Chegar
TTITLE13=Dois Amores e um Segredo
TTITLE14=Percorrendo Mato Grosso
TTITLE15=Lá no Meio do Mato Tem
TTITLE16=Vivo Sofrendo
TTITLE17=Nosso Juramento
TTITLE18=Minha Despedida
TTITLE19=Confissão de Amor
TTITLE20=Boêmio Apaixonado
TTITLE21=Pombinha Mensageira
TTITLE22=Sem Ninguém por Mim
TTITLE23=Velhos Amigos
EXTD=
EXTT0=
EXTT1=
EXTT2=
EXTT3=
EXTT4=
EXTT5=
EXTT6=
EXTT7=
EXTT8=
EXTT9=
EXTT10=
EXTT11=
EXTT12=
EXTT13=
EXTT14=
EXTT15=
EXTT16=
EXTT17=
EXTT18=
EXTT19=
EXTT20=
EXTT21=
EXTT22=
EXTT23=
PLAYORDER=
